<?xml version="1.0" encoding="UTF-8" standalone="no"?>
<svg
   xmlns:dc="http://purl.org/dc/elements/1.1/"
   xmlns:cc="http://creativecommons.org/ns#"
   xmlns:rdf="http://www.w3.org/1999/02/22-rdf-syntax-ns#"
   xmlns:svg="http://www.w3.org/2000/svg"
   xmlns="http://www.w3.org/2000/svg"
   xmlns:sodipodi="http://sodipodi.sourceforge.net/DTD/sodipodi-0.dtd"
   xmlns:inkscape="http://www.inkscape.org/namespaces/inkscape"
   width="210"
   height="68"
   viewBox="0 0 55.562496 17.991661"
   version="1.1"
   id="svg5"
   inkscape:version="1.0.1 (3bc2e813f5, 2020-09-07)"
   sodipodi:docname="logga in.svg">
  <metadata
     id="metadata14">
    <rdf:RDF>
      <cc:Work
         rdf:about="">
        <dc:format>image/svg+xml</dc:format>
        <dc:type
           rdf:resource="http://purl.org/dc/dcmitype/StillImage" />
      </cc:Work>
    </rdf:RDF>
  </metadata>
  <sodipodi:namedview
     id="namedview7"
     pagecolor="#ffffff"
     bordercolor="#111111"
     borderopacity="1"
     inkscape:pageshadow="0"
     inkscape:pageopacity="0"
     inkscape:pagecheckerboard="1"
     inkscape:document-units="px"
     showgrid="false"
     units="px"
     inkscape:zoom="2.5620932"
     inkscape:cx="87.689722"
     inkscape:cy="36.327"
     inkscape:window-width="1680"
     inkscape:window-height="987"
     inkscape:window-x="1672"
     inkscape:window-y="-8"
     inkscape:window-maximized="1"
     inkscape:current-layer="layer1"
     inkscape:document-rotation="0" />
  <defs
     id="defs2">
    <rect
       x="5.464282"
       y="4.4885173"
       width="196.12869"
       height="49.178539"
       id="rect22584" />
    <rect
       x="10.928564"
       y="8.3915758"
       width="185.00497"
       height="41.957882"
       id="rect4472" />
    <filter
       inkscape:collect="always"
       style="color-interpolation-filters:sRGB"
       id="filter82760"
       x="-0.031507702"
       y="-0.2003058"
       width="1.0630153"
       height="1.4006091">
      <feGaussianBlur
         inkscape:collect="always"
         stdDeviation="1.1560194"
         id="feGaussianBlur82762" />
    </filter>
  </defs>
  <g
     inkscape:label="Lager 1"
     inkscape:groupmode="layer"
     id="layer1">
    <path
       style="opacity:0.777154;mix-blend-mode:normal;fill:#b3b3b3;fill-opacity:1;fill-rule:evenodd;stroke:#000000;stroke-width:3.44884;stroke-linejoin:round;stroke-miterlimit:4;stroke-dasharray:none;stroke-opacity:1;filter:url(#filter82760)"
       d="m -39.214528,17.65182 c -2.043187,-0.453889 -4.204559,-2.103384 -5.154495,-3.93376 -0.946459,-1.823674 -1.001459,-2.220093 -1.000723,-7.212782 6.62e-4,-4.488219 0.0033,-4.526988 0.382879,-5.589505 0.724543,-2.028235 2.020859,-3.589112 3.774309,-4.544601 1.875685,-1.022097 -4.087332,-0.938833 67.235879,-0.938833 70.920852,0 65.298542,-0.07437 67.164162,0.888459 1.7643,0.910545 3.28203,2.762235 3.90231,4.761 0.30741,0.990587 0.32726,1.324189 0.32726,5.498806 0,4.909039 -0.0575,5.318681 -1.00139,7.137456 -0.96636,1.862021 -3.11643,3.484051 -5.22331,3.940506 -1.45055,0.314264 -128.991553,0.307666 -130.406881,-0.0067 z"
       id="path74772"
       transform="matrix(0.36616358,8.7032559e-4,0.01095828,0.60541882,18.217253,4.8815254)" />
    <text
       xml:space="preserve"
       transform="matrix(0.26458331,0,0,0.26458331,1.5490264,1.1875865)"
       id="text22582"
       style="font-size:42.6667px;line-height:1.25;font-family:sans-serif;white-space:pre;shape-inside:url(#rect22584);"><tspan
         x="5.4648438"
         y="42.238309"><tspan>Logga in</tspan></tspan></text>
    <text
       xml:space="preserve"
       transform="scale(0.26458331)"
       id="text4470"
       style="font-style:normal;font-weight:normal;font-size:40px;line-height:1.25;font-family:sans-serif;white-space:pre;shape-inside:url(#rect4472);fill:#000000;fill-opacity:1;stroke:none;" />
  </g>
</svg>
