<?xml version="1.0" encoding="UTF-8" standalone="no"?>
<svg
   xmlns:dc="http://purl.org/dc/elements/1.1/"
   xmlns:cc="http://creativecommons.org/ns#"
   xmlns:rdf="http://www.w3.org/1999/02/22-rdf-syntax-ns#"
   xmlns:svg="http://www.w3.org/2000/svg"
   xmlns="http://www.w3.org/2000/svg"
   xmlns:sodipodi="http://sodipodi.sourceforge.net/DTD/sodipodi-0.dtd"
   xmlns:inkscape="http://www.inkscape.org/namespaces/inkscape"
   width="592.98413"
   height="150.63245"
   viewBox="0 0 156.89333 39.854806"
   version="1.1"
   id="svg5"
   inkscape:version="1.0.1 (3bc2e813f5, 2020-09-07)"
   sodipodi:docname="masthead.svg">
  <metadata
     id="metadata17">
    <rdf:RDF>
      <cc:Work
         rdf:about="">
        <dc:format>image/svg+xml</dc:format>
        <dc:type
           rdf:resource="http://purl.org/dc/dcmitype/StillImage" />
      </cc:Work>
    </rdf:RDF>
  </metadata>
  <sodipodi:namedview
     id="namedview7"
     pagecolor="#ffffff"
     bordercolor="#111111"
     borderopacity="1"
     inkscape:pageshadow="0"
     inkscape:pageopacity="0"
     inkscape:pagecheckerboard="1"
     inkscape:document-units="px"
     showgrid="false"
     units="px"
     inkscape:zoom="1.2810465"
     inkscape:cx="198.9815"
     inkscape:cy="91.653239"
     inkscape:window-width="1280"
     inkscape:window-height="961"
     inkscape:window-x="2722"
     inkscape:window-y="17"
     inkscape:window-maximized="1"
     inkscape:current-layer="layer1"
     inkscape:document-rotation="0" />
  <defs
     id="defs2">
    <rect
       x="18.215202"
       y="18.215202"
       width="566.59741"
       height="124.27102"
       id="rect23573" />
    <rect
       x="19.124989"
       y="16.002541"
       width="369.61966"
       height="67.132607"
       id="rect15963" />
    <rect
       x="5.464282"
       y="4.4885173"
       width="322.58774"
       height="82.354523"
       id="rect22584" />
    <rect
       x="10.928564"
       y="8.3915758"
       width="185.00497"
       height="41.957882"
       id="rect4472" />
    <filter
       inkscape:collect="always"
       style="color-interpolation-filters:sRGB"
       id="filter80643"
       x="-0.043723397"
       y="-0.27796471"
       width="1.0874467"
       height="1.5559269">
      <feGaussianBlur
         inkscape:collect="always"
         stdDeviation="1.8827861"
         id="feGaussianBlur80645" />
    </filter>
  </defs>
  <g
     inkscape:label="Lager 1"
     inkscape:groupmode="layer"
     id="layer1"
     transform="translate(-0.09208617,0.3954862)">
    <path
       style="opacity:1;mix-blend-mode:normal;fill:#b3b3b3;fill-opacity:1;fill-rule:evenodd;stroke:#000000;stroke-width:3.44884;stroke-linejoin:round;stroke-miterlimit:4;stroke-dasharray:none;stroke-opacity:1;filter:url(#filter80643)"
       d="M 7.8715711,24.35748 C 5.8283841,23.903591 3.667012,22.254096 2.7170753,20.42372 1.7706165,18.600046 1.7156163,18.203627 1.7163527,13.210938 1.7170147,8.7227199 1.7196703,8.6839509 2.0992319,7.6214336 2.823775,5.5931995 4.1200904,4.0323217 5.8735411,3.076833 7.7492261,2.0547364 1.7862085,2.1379997 73.109421,2.1379997 c 70.920849,0 65.298539,-0.074373 67.164159,0.8884597 1.7643,0.9105449 3.28203,2.7622347 3.90231,4.7609992 0.30741,0.9905872 0.32726,1.3241896 0.32726,5.4988054 0,4.909039 -0.0575,5.318681 -1.00139,7.137456 -0.96636,1.862021 -3.11643,3.484051 -5.22331,3.940506 C 136.8279,24.67849 9.2868991,24.671892 7.8715711,24.357526 Z"
       id="path74772"
       transform="matrix(1.0104369,0,0,1.1404506,4.6659708,4.288114)" />
    <text
       xml:space="preserve"
       transform="scale(0.26458331)"
       id="text4470"
       style="font-style:normal;font-weight:normal;font-size:40px;line-height:1.25;font-family:sans-serif;white-space:pre;shape-inside:url(#rect4472);fill:#000000;fill-opacity:1;stroke:none;" />
    <text
       xml:space="preserve"
       transform="matrix(0.26458319,0,0,0.26458319,11.850285,6.0335986)"
       id="text23571"
       style="font-style:normal;font-weight:normal;font-size:53.3333px;line-height:1.25;font-family:sans-serif;white-space:pre;shape-inside:url(#rect23573);fill:#000000;fill-opacity:1;stroke:none;"><tspan
         x="18.214844"
         y="65.402316"><tspan>Brädspelssamlaren</tspan></tspan></text>
  </g>
</svg>
